<svg width="64" height="64" viewBox="0 0 64 64" fill="" xmlns="http://www.w3.org/2000/svg">
<path d="M21.5 6C15.701 6 11 10.701 11 16.5V35.5C11 36.3284 11.6716 37 12.5 37C13.3284 37 14 36.3284 14 35.5V16.5C14 12.3579 17.3579 9 21.5 9H35.9522C37.1456 9 38.2902 9.4741 39.1341 10.318L48.682 19.8659C49.5259 20.7098 50 21.8544 50 23.0478V47.5C50 51.6421 46.6421 55 42.5 55H39.5C38.6716 55 38 55.6716 38 56.5C38 57.3284 38.6716 58 39.5 58H42.5C48.299 58 53 53.299 53 47.5V23.0478C53 21.0587 52.2098 19.1511 50.8033 17.7445L41.2555 8.1967C39.8489 6.79017 37.9413 6 35.9522 6H21.5Z" fill="white"/>
<path d="M36 12.5C36 11.6716 35.3284 11 34.5 11C33.6716 11 33 11.6716 33 12.5V18.5C33 22.0899 35.9101 25 39.5 25H46.5C47.3284 25 48 24.3284 48 23.5C48 22.6716 47.3284 22 46.5 22H39.5C37.567 22 36 20.433 36 18.5V12.5Z" fill="white"/>
<path d="M1.5 33C2.32843 33 3 33.6716 3 34.5V37.5C3 43.299 7.70101 48 13.5 48H29.1038L21.1644 40.0607C20.5787 39.4749 20.5787 38.5251 21.1644 37.9393C21.7502 37.3536 22.7 37.3536 23.2858 37.9393L31.6644 46.318C33.4218 48.0754 33.4218 50.9246 31.6644 52.682L23.2858 61.0607C22.7 61.6464 21.7502 61.6464 21.1644 61.0607C20.5787 60.4749 20.5787 59.5251 21.1644 58.9393L29.1038 51H13.5C6.04416 51 0 44.9558 0 37.5V34.5C0 33.6716 0.671573 33 1.5 33Z" fill="white"/>
</svg>
