<svg width="64" height="64" viewBox="0 0 64 64" fill="none" xmlns="http://www.w3.org/2000/svg">
<path d="M21.5 6C15.701 6 11 10.701 11 16.5V47.5C11 53.299 15.701 58 21.5 58H23.5C24.3284 58 25 57.3284 25 56.5C25 55.6716 24.3284 55 23.5 55H21.5C17.3579 55 14 51.6421 14 47.5V16.5C14 12.3579 17.3579 9 21.5 9H35.9522C37.1456 9 38.2902 9.4741 39.1341 10.318L48.682 19.8659C49.5259 20.7098 50 21.8544 50 23.0478V28.5C50 29.3284 50.6716 30 51.5 30C52.3284 30 53 29.3284 53 28.5V23.0478C53 21.0587 52.2098 19.1511 50.8033 17.7445L41.2555 8.1967C39.8489 6.79017 37.9413 6 35.9522 6H21.5Z" fill="white"/>
<path d="M36 12.5C36 11.6716 35.3284 11 34.5 11C33.6716 11 33 11.6716 33 12.5V18.5C33 22.0899 35.9101 25 39.5 25H46.5C47.3284 25 48 24.3284 48 23.5C48 22.6716 47.3284 22 46.5 22H39.5C37.567 22 36 20.433 36 18.5V12.5Z" fill="white"/>
<path d="M31 59.5C31 52.0442 37.0442 46 44.5 46H59.1038L51.1644 38.0607C50.5787 37.4749 50.5787 36.5251 51.1644 35.9393C51.7502 35.3536 52.7 35.3536 53.2858 35.9393L61.6644 44.318C63.4218 46.0754 63.4218 48.9246 61.6644 50.682L53.2858 59.0607C52.7 59.6464 51.7502 59.6464 51.1644 59.0607C50.5787 58.4749 50.5787 57.5251 51.1644 56.9393L59.1038 49H44.5C38.701 49 34 53.701 34 59.5V61.5C34 62.3284 33.3284 63 32.5 63C31.6716 63 31 62.3284 31 61.5V59.5Z" fill="white"/>
</svg>
